<svg xmlns="http://www.w3.org/2000/svg" width="11" height="9">
    <path fill-rule="evenodd" d="M11.022 8.611c0 .19-.154.345-.344.345H.344A.345.345 0 0 1 0 8.611V.344L.001.339A.338.338 0 0 1 .099.095.335.335 0 0 1 .361 0h10.3a.335.335 0 0 1 .262.095.338.338 0 0 1 .098.244l.001.005v8.267zM.689 7.922c0 .19.154.345.344.345h8.956c.19 0 .344-.155.344-.345V1.085L5.778 5.034c-.008.01-.011.022-.02.031a.34.34 0 0 1-.247.098.34.34 0 0 1-.247-.098c-.009-.009-.012-.021-.02-.031L.689 1.085v6.837zm4.822-3.55L9.759.689H1.263l4.248 3.683z" opacity=".4"/>
</svg>
