<svg xmlns="http://www.w3.org/2000/svg" width="19.968" height="19.968">
    <path fill="#FFF" fill-rule="evenodd" d="M13.775 14.273c-.098.093-.195.184-.284.274-.31.308-.803.463-1.425.463-.624 0-1.379-.157-2.208-.47-1.819-.685-3.797-2.039-5.571-3.812C2.512 8.955 1.158 6.977.472 5.159-.152 3.507-.154 2.15.467 1.53c.089-.09.18-.186.274-.284C1.309.65 1.961-.026 2.798.01c.586.024 1.153.387 1.734 1.109 1.714 2.132.942 2.892.047 3.773l-.158.157c-.146.146-.423.824 2.151 3.396.84.84 1.556 1.454 2.129 1.826.361.235 1.004.589 1.269.324l.159-.16c.881-.893 1.641-1.663 3.773.05.723.579 1.085 1.146 1.11 1.732.035.848-.641 1.489-1.237 2.056z"/>
</svg>
