<svg width="46px" height="42px" viewBox="0 0 46 42" version="1.1" xmlns="http://www.w3.org/2000/svg" xmlns:xlink="http://www.w3.org/1999/xlink">
    <!-- Generator: Sketch 47.1 (45422) - http://www.bohemiancoding.com/sketch -->
    <desc>Created with Sketch.</desc>
    <defs></defs>
    <g id="Page-1" stroke="none" stroke-width="1" fill="none" fill-rule="evenodd">
        <g id="shape-9">
            <path d="M46.011,21 L42,24.128 L42,37 C42,39.7614237 39.7614237,42 37,42 L5,42 C2.23857625,42 3.55271368e-15,39.7614237 3.55271368e-15,37 L3.55271368e-15,5 C5.32907052e-15,2.23857625 2.23857625,0 5,0 L37,0 C39.7614237,0 42,2.23857625 42,5 L42,17.872 L46.011,21 Z" id="Shape" fill="#76CD1A"></path>
            <path d="M28.775,28.273 C28.677,28.366 28.58,28.457 28.491,28.547 C28.181,28.855 27.688,29.01 27.066,29.01 C26.442,29.01 25.687,28.853 24.858,28.54 C23.039,27.855 21.061,26.501 19.287,24.728 C17.512,22.955 16.158,20.977 15.472,19.159 C14.848,17.507 14.846,16.15 15.467,15.53 C15.556,15.44 15.647,15.344 15.741,15.246 C16.309,14.65 16.961,13.974 17.798,14.01 C18.384,14.034 18.951,14.397 19.532,15.119 C21.246,17.251 20.474,18.011 19.579,18.892 L19.421,19.049 C19.275,19.195 18.998,19.873 21.572,22.445 C22.412,23.285 23.128,23.899 23.701,24.271 C24.062,24.506 24.705,24.86 24.97,24.595 L25.129,24.435 C26.01,23.542 26.77,22.772 28.902,24.485 C29.625,25.064 29.987,25.631 30.012,26.217 C30.047,27.065 29.371,27.706 28.775,28.273 Z" id="Shape" fill="#FFFFFF"></path>
        </g>
    </g>
</svg>