<svg xmlns="http://www.w3.org/2000/svg" width="3.351cm" height="43.994">
    <defs>
        <linearGradient id="a" x1="0%" x2="0%" y1="100%" y2="0%">
            <stop offset="0%" stop-color="#5CE6FF" stop-opacity="0"/>
            <stop offset="100%" stop-color="#5CE6FF" stop-opacity=".79"/>
        </linearGradient>
    </defs>
    <path fill="none" d="M16.347 7.981c-.025 0-.049-.003-.074-.003-4.574 0-8.282 3.657-8.282 8.169 0 4.512 3.708 8.169 8.282 8.169.025 0 .049-.003.074-.003v7.877c-.025 0-.05.004-.075.004-8.985 0-16.268-7.185-16.268-16.047C.004 7.284 7.287.1 16.272.1c.025 0 .05.004.075.004v7.877z"/>
    <path fill="url(#a)" d="M16.347 7.981c-.025 0-.049-.003-.074-.003-4.574 0-8.282 3.657-8.282 8.169 0 4.512 3.708 8.169 8.282 8.169.025 0 .049-.003.074-.003v7.877c-.025 0-.05.004-.075.004-8.985 0-16.268-7.185-16.268-16.047C.004 7.284 7.287.1 16.272.1c.025 0 .05.004.075.004v7.877z"/>
    <path fill="#5BD1FF" fill-rule="evenodd" d="M16.42.094c2.208 0 3.998 1.766 3.998 3.944s-1.79 3.944-3.998 3.944-3.998-1.766-3.998-3.944S14.212.094 16.42.094z"/>
    <path fill="#F2D431" fill-rule="evenodd" d="M16.42 12.338c2.208 0 3.998 1.766 3.998 3.944s-1.79 3.943-3.998 3.943-3.998-1.765-3.998-3.943 1.79-3.944 3.998-3.944z"/>
    <path fill="#E66EA5" fill-rule="evenodd" d="M16.42 24.309c2.208 0 3.998 1.766 3.998 3.944s-1.79 3.944-3.998 3.944-3.998-1.766-3.998-3.944 1.79-3.944 3.998-3.944z"/>
    <text fill="#555759" font-family="Montserrat" font-size="5.088" font-weight="bold" transform="matrix(3.53808 0 0 3.53808 35.588 20.76)">
        epicalls
    </text>
</svg>
