<svg width="15px" height="10px" viewBox="0 0 15 10" version="1.1" xmlns="http://www.w3.org/2000/svg" xmlns:xlink="http://www.w3.org/1999/xlink">
    <!-- Generator: Sketch 48 (47235) - http://www.bohemiancoding.com/sketch -->
    <desc>Created with Sketch.</desc>
    <defs></defs>
    <g id="Page-1" stroke="none" stroke-width="1" fill="none" fill-rule="evenodd">
        <g id="signout" fill="#FFFFFF">
            <path d="M14.2221933,8 L14.2221933,9.924 L4.86668399,9.924 L4.86668399,8 L14.2221933,8 Z M2.33887734,8 L2.33887734,9.924 L-4.4408921e-16,9.924 L-4.4408921e-16,8 L2.33887734,8 Z" id="Shape"></path>
            <path d="M14.2221933,6.66133815e-16 L14.2221933,1.924 L4.86668399,1.924 L4.86668399,1.23899354e-15 L14.2221933,6.66133815e-16 Z M2.33887734,6.66133815e-16 L2.33887734,1.924 L-4.4408921e-16,1.924 L-4.4408921e-16,8.09348747e-16 L2.33887734,6.66133815e-16 Z" id="Shape-Copy-2"></path>
            <path d="M14,4 L14,5.924 L4.88643451,5.924 L4.88643451,4 L14,4 Z M2.33887734,4 L2.33887734,5.924 L-4.4408921e-16,5.924 L-4.4408921e-16,4 L2.33887734,4 Z" id="Shape-Copy"></path>
        </g>
    </g>
</svg>