<svg xmlns="http://www.w3.org/2000/svg" width="11" height="11">
    <path fill="#161616" fill-rule="evenodd" d="M8.989 10.999c-.426 0-.941-.107-1.507-.32-1.241-.468-2.591-1.391-3.801-2.6C2.47 6.87 1.546 5.522 1.077 4.282.652 3.156.651 2.231 1.074 1.808c.061-.061.123-.127.187-.194.388-.406.832-.867 1.404-.842.399.016.786.264 1.183.756C5.018 2.982 4.49 3.5 3.88 4.1l-.108.107c-.1.1-.289.562 1.468 2.316.573.572 1.062.991 1.452 1.245.247.16.686.401.866.221l.109-.11c.601-.609 1.12-1.134 2.575.034.493.396.74.782.757 1.181.023.579-.438 1.016-.845 1.402-.066.064-.132.126-.193.187-.212.21-.548.316-.972.316zM2.624 1.115c-.412 0-.784.39-1.113.736-.066.069-.13.137-.193.2-.316.315-.283 1.143.082 2.11.451 1.194 1.347 2.5 2.524 3.675 1.177 1.175 2.483 2.071 3.68 2.521.969.365 1.798.396 2.113.081l.2-.193c.354-.335.755-.715.737-1.138-.011-.29-.223-.602-.628-.927-1.213-.973-1.552-.63-2.114-.06l-.11.111c-.268.269-.705.209-1.297-.176-.411-.266-.919-.701-1.509-1.29-1.457-1.456-1.924-2.346-1.467-2.802l.109-.109c.571-.561.916-.9-.059-2.111-.326-.405-.638-.616-.928-.628h-.027z"/>
</svg>
