<svg width="12px" height="12px" viewBox="0 0 12 12" version="1.1" xmlns="http://www.w3.org/2000/svg" xmlns:xlink="http://www.w3.org/1999/xlink">
    <g id="Page-1" stroke="none" stroke-width="1" fill="none" fill-rule="evenodd">
        <g id="search" fill="#66b7d0">
            <path d="M11.493,11.493 C11.0657835,11.9201338 10.3732165,11.9201338 9.946,11.493 L8.015,9.562 C7.19760155,10.0913559 6.24483576,10.373644 5.271,10.375 C2.45213864,10.375 0.167,8.08986136 0.167,5.271 C0.167,2.45213864 2.45213864,0.167 5.271,0.167 C8.08986136,0.167 10.375,2.45213864 10.375,5.271 C10.3734964,6.24512662 10.0912283,7.19817215 9.562,8.016 L11.493,9.946 C11.92,10.373 11.92,11.066 11.493,11.493 Z M5.271,1.625 C3.95419779,1.60318994 2.72798085,2.29320881 2.06320319,3.43009685 C1.39842554,4.56698489 1.39842554,5.97401511 2.06320319,7.11090315 C2.72798085,8.24779119 3.95419779,8.93781006 5.271,8.916 C7.26081657,8.88304287 8.85661995,7.26058948 8.85661995,5.2705 C8.85661995,3.28041052 7.26081657,1.65795713 5.271,1.625 Z" id="Shape"></path>
        </g>
    </g>
</svg>