<svg width="13px" height="13px" viewBox="0 0 13 13" version="1.1" xmlns="http://www.w3.org/2000/svg" xmlns:xlink="http://www.w3.org/1999/xlink">
    <!-- Generator: Sketch 48 (47235) - http://www.bohemiancoding.com/sketch -->
    <desc>Created with Sketch.</desc>
    <defs></defs>
    <g id="Page-1" stroke="none" stroke-width="1" fill="none" fill-rule="evenodd">
        <g id="signout" fill="#FFFFFF">
            <path d="M6.637,12.808 C3.304,12.808 0.592,10.07 0.592,6.705 C0.588966336,5.44971648 0.973084127,4.22403153 1.692,3.195 C2.38671886,2.19383825 3.36802071,1.42622665 4.507,0.993 L4.789,1.749 C2.775,2.507 1.335,4.437 1.335,6.716 C1.335,9.65525944 3.71774056,12.038 6.657,12.038 C9.59625944,12.038 11.979,9.65525944 11.979,6.716 C11.979,4.427 10.526,2.492 8.497,1.741 L8.776,0.997 C9.91283911,1.4311607 10.8919605,2.19870261 11.585,3.199 C12.3026575,4.22703197 12.686057,5.45125654 12.683,6.705 C12.683,10.07 9.971,12.808 6.637,12.808 Z M6.157,0.717 L7.119,0.717 L7.119,7.454 L6.157,7.454 L6.157,0.717 Z" id="Shape"></path>
        </g>
    </g>
</svg>