<svg xmlns="http://www.w3.org/2000/svg" width="46" height="46">
    <path fill="#FFBB39" fill-rule="evenodd" d="M23 46C10.297 46 0 35.702 0 23 0 10.297 10.297 0 23 0c12.702 0 23 10.297 23 23 0 12.702-10.298 23-23 23zm0-43.125C11.885 2.875 2.875 11.885 2.875 23S11.885 43.125 23 43.125 43.125 34.115 43.125 23 34.115 2.875 23 2.875zm.547 31.757c-.876 0-1.586-.744-1.586-1.662V20.13c0-.918.71-1.662 1.586-1.662.876 0 1.586.744 1.586 1.662v12.84c0 .918-.71 1.662-1.586 1.662zm0-18.883c-.876 0-1.586-.744-1.586-1.662 0-.918.71-1.662 1.586-1.662.876 0 1.586.744 1.586 1.662 0 .918-.71 1.662-1.586 1.662z"/>
</svg>
