<svg 
 xmlns="http://www.w3.org/2000/svg"
 xmlns:xlink="http://www.w3.org/1999/xlink"
 width="0.564cm" height="0.741cm">
<path fill-rule="evenodd"  fill="rgb(255, 255, 255)"
 d="M15.377,4.936 L14.544,4.936 L13.138,18.943 C13.080,19.593 12.522,20.107 11.869,20.107 L4.322,20.107 C3.669,20.107 3.111,19.593 3.052,18.937 L1.647,4.936 L0.814,4.936 C0.480,4.936 0.209,4.665 0.209,4.331 C0.209,3.996 0.480,3.725 0.814,3.725 L5.077,3.725 L5.077,2.074 C5.077,1.307 5.702,0.702 6.468,0.702 L9.723,0.702 C10.490,0.702 11.114,1.307 11.114,2.074 L11.114,3.725 L15.377,3.725 C15.712,3.725 15.982,3.996 15.982,4.331 C15.982,4.665 15.712,4.936 15.377,4.936 ZM9.903,2.074 C9.903,1.975 9.822,1.894 9.723,1.894 L6.468,1.894 C6.369,1.894 6.288,1.975 6.288,2.074 L6.288,3.725 L9.903,3.725 L9.903,2.074 Z"/>
</svg>