<svg xmlns="http://www.w3.org/2000/svg" width="10.59" height="13.02">
    <path fill="#1B1B1B" fill-rule="evenodd" d="M10.772 2.87h-.559l-.943 9.401a.865.865 0 0 1-.852.781H3.352a.865.865 0 0 1-.852-.785L1.557 2.87H.998a.407.407 0 1 1 0-.813h2.861V.949c0-.515.419-.921.934-.921h2.184c.515 0 .934.406.934.921v1.108h2.861a.407.407 0 1 1 0 .813zm-7.463 9.321c.002.026.029.048.043.048h5.066c.014 0 .04-.022.042-.045l.936-9.324H2.374l.935 9.321zM7.098.949a.12.12 0 0 0-.121-.121H4.793a.12.12 0 0 0-.121.121v1.108h2.426V.949z" opacity=".302"/>
</svg>
