
<svg width="12px" height="13px" viewBox="0 0 12 13" version="1.1" xmlns="http://www.w3.org/2000/svg" xmlns:xlink="http://www.w3.org/1999/xlink">
    <!-- Generator: Sketch 48 (47235) - http://www.bohemiancoding.com/sketch -->
    <desc>Created with Sketch.</desc>
    <defs></defs>
    <g id="Page-1" stroke="none" stroke-width="1" fill="none" fill-rule="evenodd">
        <g id="user" fill="#FFFFFF">
            <path d="M11.998,13 L11.195,13 C11.0473872,10.9934882 9.77124316,9.24567512 7.905,8.494 C7.31196606,8.78465568 6.66043113,8.93616748 6,8.937 C5.33955669,8.93627307 4.68799827,8.78475581 4.095,8.494 C2.22860496,9.24548001 0.952380688,10.993403 0.805,13 L0.002,13 C0.137750301,10.8678895 1.37993142,8.96250356 3.276,7.978 C2.20862319,7.12648273 1.58818185,5.83441824 1.591,4.469 C1.591,2.001 3.565,0 6,0 C8.435,0 10.409,2.001 10.409,4.469 C10.409,5.894 9.749,7.16 8.723,7.978 C10.6193178,8.96239577 11.861853,10.8677429 11.998,13 Z M9.607,4.469 C9.607,2.449 7.992,0.812 6,0.812 C4.007,0.812 2.392,2.449 2.392,4.469 C2.392,6.488 4.007,8.125 6,8.125 C7.992,8.125 9.607,6.488 9.607,4.469 Z" id="Shape"></path>
        </g>
    </g>
</svg>